# xmcd
#
# Track frame offsets:
#	150
#	18935
#	44457
#	62720
#	82642
#	101927
#	123122
#	146240
#	164387
#	180865
#	197330
#	210972
#	225915
#	240060
#	248500
#	263280
#	276992
#	291757
#	306555
#	320420
#	331587
#
# Disc length: 4622
#
# Revision: 3
# Processed by: cddbd v1.5.1PL0 Copyright (c) Steve Scherf et al.
# Submitted via: CDex 1.40Beta9
# Normalized: r2:DSETVAR1
#
DISCID=07120c15
DTITLE=Various Artist - Loved Up  - Disk 2 of 2
DYEAR=2000
DGENRE=Dance
TTITLE0=Faithless - If Lovin' You Is Wrong (Sexy Edit)
TTITLE1=MJ Cole - Sincere (Vocal Mix)
TTITLE2=MAW presents India - To Be In Love (MJ Cole Vox)
TTITLE3=Moloko - Sing It Back (Boris Dlugosch Musical Mix)
TTITLE4=Everthing But The Girl - Missing (Todd Terry Club Mix)
TTITLE5=Powerhouse feating Duane Harden - What You Need (Full Intention Power Mix)
TTITLE6=Eclipse - Makes Me Love You (Morning Star)
TTITLE7=Soulsearcher - Can't Get Enough (Vocal Club Edit)
TTITLE8=Tori Amos - Professional Widow (Armand's Star Trunk Funkin' Mix)
TTITLE9=Ultra Nate - Found A Cure (Full Intention Club Mix)
TTITLE10=Triple X - Feel The Same (Extended Mix)
TTITLE11=Meeker - Save Me (Future Shock SOS Mix)
TTITLE12=Starparty - I'm In Love (Ferry Corsten Mix)
TTITLE13=Chicane - Offshore (Disco Citizens Remix)
TTITLE14=Paul Van Dyk - For An Angel (PvD E-Werk Club Mix)
TTITLE15=Lost Witness - Happiness Happening (Lange Remix)
TTITLE16=Lucid - Stay With Me Till Dawn (Translucid Remix)
TTITLE17=Moby - Why Does My Heart Feel So Bad (Ferry Corsten Remix)
TTITLE18=ATB - 9pm (Till I Come) (Signum Remix)
TTITLE19=Hybrid - Finished Symphony
TTITLE20=Alena - Turn It Around
EXTD=\n YEAR: 2000 ID3G: 3
EXTT0=
EXTT1=
EXTT2=
EXTT3=
EXTT4=
EXTT5=
EXTT6=
EXTT7=
EXTT8=
EXTT9=
EXTT10=
EXTT11=
EXTT12=
EXTT13=
EXTT14=
EXTT15=
EXTT16=
EXTT17=
EXTT18=
EXTT19=
EXTT20=
PLAYORDER=
